<svg width="208" height="59" viewBox="0 0 208 59" fill="none" xmlns="http://www.w3.org/2000/svg">
<path d="M118.238 29.7501C116.783 29.7907 115.327 29.9309 113.881 30.1078C112.476 30.28 111.129 30.689 109.905 31.4307C108.491 32.2874 107.689 33.5416 107.745 35.1951C107.8 36.8699 108.647 38.1338 110.137 38.9325C111.712 39.7767 113.403 39.8318 115.109 39.5436C117.702 39.1056 119.857 37.8456 121.597 35.8855C121.854 35.5954 122.193 35.2357 122.207 34.8963C122.271 33.2573 122.236 31.6154 122.236 29.8864C120.867 29.8332 119.551 29.7133 118.239 29.7501H118.238Z" fill="white"/>
<path d="M204.437 0H96.2434C94.2756 0 92.6801 1.59551 92.6801 3.56332V54.4283C92.6801 56.3961 94.2756 57.9916 96.2434 57.9916H204.437C206.404 57.9916 208 56.3961 208 54.4283V3.56332C208 1.59551 206.404 0 204.437 0ZM126.344 43.164C125.466 43.1504 124.57 43.2771 123.712 43.1456C122.527 42.9638 122.316 42.3962 122.256 41.3354C122.218 40.6508 122.249 39.9633 122.249 39.2903C121.458 39.9594 120.72 40.6431 119.923 41.2465C118.293 42.4784 116.439 43.1853 114.415 43.4502C113.861 43.5227 113.304 43.5759 112.748 43.6378H112.36C111.615 43.5421 110.864 43.4812 110.127 43.3458C106.881 42.7492 104.058 40.4951 103.35 37.1668C102.577 33.5319 103.749 30.6087 107.066 28.6903C108.938 27.6082 110.995 27.0261 113.135 26.8201C115.183 26.6228 117.241 26.532 119.298 26.4304C120.244 26.384 121.194 26.4227 122.192 26.4227C122.196 26.3859 122.231 26.2622 122.221 26.1423C122.136 25.0718 122.111 23.9907 121.939 22.9329C121.625 21.0018 120.382 19.9014 118.519 19.4798C116.723 19.0727 114.904 19.093 113.106 19.4237C111.282 19.7592 109.476 20.1953 107.663 20.5908C105.7 21.0192 105 19.8569 105.033 18.1154C105.051 17.219 105.505 17.0198 106.195 16.8061C108.34 16.1408 110.511 15.5935 112.751 15.404C114.224 15.2792 115.709 15.1874 117.185 15.227C118.904 15.2725 120.599 15.5664 122.184 16.2946C124.591 17.4008 125.97 19.3299 126.486 21.8643C126.727 23.0518 126.867 24.2799 126.874 25.4915C126.912 31.1802 126.884 36.869 126.897 42.5577C126.898 42.9909 126.788 43.1727 126.342 43.1659L126.344 43.164ZM150.742 18.536C150.671 19.4256 150.007 19.8791 149.084 19.9546C147.93 20.0484 146.758 20.0716 145.63 20.2969C143.209 20.7804 141.389 22.2009 139.942 24.1667C139.132 25.2681 138.716 26.414 138.776 27.8238C138.877 30.2045 138.801 32.593 138.801 34.9785C138.801 37.0923 138.789 39.2071 138.805 41.3209C138.815 42.666 138.172 43.1853 136.887 43.2384C136.136 43.2694 135.38 43.1737 134.625 43.1504C134.259 43.1398 134.146 42.9928 134.147 42.6176C134.16 37.7025 134.156 32.7864 134.154 27.8712C134.152 23.9714 134.154 20.0716 134.131 16.1727C134.128 15.7463 134.274 15.5887 134.669 15.5887C135.615 15.5906 136.571 15.4987 137.502 15.6157C138.406 15.7298 138.798 16.3381 138.801 17.2528C138.804 18.4412 138.801 19.6306 138.801 20.8326C139.616 19.9633 140.344 19.0785 141.183 18.3146C142.945 16.7094 145.043 15.784 147.428 15.5983C148.37 15.5248 149.323 15.5819 150.27 15.6012C150.39 15.6041 150.605 15.7308 150.612 15.814C150.683 16.721 150.816 17.6377 150.743 18.537L150.742 18.536ZM170.874 41.9292C169.083 42.6853 167.244 43.2404 165.301 43.457C163.502 43.6581 161.724 43.6078 160.003 43.0383C157.306 42.1458 155.685 40.2466 155.091 37.4917C154.937 36.7781 154.876 36.0325 154.869 35.3005C154.848 32.884 154.879 30.4676 154.877 28.0511C154.871 22.6882 154.856 17.3263 154.853 11.9635C154.853 11.5834 154.863 11.185 154.969 10.8253C155.258 9.84868 156.105 9.65141 156.954 9.62144C157.685 9.59533 158.423 9.72587 159.156 9.80033C159.456 9.8303 159.463 10.0537 159.462 10.2983C159.458 11.9412 159.462 13.5851 159.467 15.228C159.467 15.4011 159.483 15.5732 159.492 15.7879H170.143C170.298 16.7954 170.419 17.7673 170.187 18.7333C170.022 19.4237 169.577 19.854 168.82 19.8617C167.273 19.8772 165.725 19.8917 164.176 19.8994C162.757 19.9072 161.337 19.9053 159.917 19.9091C159.79 19.9091 159.664 19.9275 159.48 19.942C159.48 20.761 159.482 21.5617 159.48 22.3614C159.467 26.5165 159.438 30.6716 159.449 34.8267C159.452 36.165 159.682 37.4627 160.721 38.4519C161.442 39.1394 162.341 39.4073 163.31 39.4798C164.978 39.6055 166.555 39.2264 168.104 38.6492C168.548 38.4838 169.03 38.3571 169.5 38.333C170.531 38.2798 171.233 38.9131 171.343 39.9468C171.388 40.3713 171.346 40.8046 171.378 41.231C171.407 41.6236 171.207 41.788 170.874 41.9292ZM195.398 40.0755C194.251 41.5008 192.708 42.3285 190.989 42.8604C189.541 43.3081 188.055 43.5266 186.54 43.5459C186.352 43.5479 186.166 43.6049 185.978 43.6359H185.3C184.569 43.573 183.837 43.5218 183.108 43.4454C180.475 43.1698 177.883 42.6892 175.386 41.788C175.237 41.7338 175.059 41.4901 175.06 41.3364C175.066 40.6992 175.051 40.0416 175.201 39.4305C175.482 38.2875 176.337 37.8852 177.607 38.1744C179.041 38.5002 180.465 38.8783 181.913 39.1239C184.252 39.5214 186.61 39.7351 188.958 39.1771C190.209 38.8803 191.334 38.3446 191.958 37.1252C192.696 35.6844 192.252 34.0009 190.909 33.0852C189.848 32.3619 188.642 31.9867 187.421 31.6453C185.138 31.0062 182.831 30.4385 180.584 29.6891C178.646 29.0432 176.971 27.9399 175.872 26.1258C175.142 24.92 174.94 23.6078 175.07 22.2328C175.415 18.6134 178.09 16.5334 181.311 15.6844C183.458 15.1187 185.633 15.1177 187.829 15.2812C190.387 15.4717 192.873 15.988 195.314 16.7548C195.58 16.838 195.707 16.9598 195.685 17.2683C195.653 17.7479 195.706 18.2324 195.676 18.712C195.6 19.9372 194.771 20.6566 193.568 20.4584C192.385 20.263 191.225 19.9352 190.046 19.7148C187.648 19.2661 185.236 19.0359 182.818 19.5658C181.759 19.7979 180.762 20.2118 180.182 21.1913C179.32 22.6466 179.686 24.5506 181.658 25.3474C183.025 25.8996 184.437 26.3415 185.842 26.7911C187.732 27.3955 189.659 27.8954 191.528 28.5587C193.31 29.1911 194.882 30.1891 195.948 31.8194C196.593 32.8057 196.886 33.8945 196.944 35.0781C197.038 36.9463 196.567 38.6192 195.395 40.0755H195.398Z" fill="white"/>
<path d="M51.5999 44.3824C53.6876 44.3824 55.4243 43.9047 56.2036 43.5266L46.5174 28.9098L53.3859 21.639L64.657 39.3251L57.8137 53.7911C58.4925 54.1431 59.9014 54.5714 61.6632 54.6217C64.6821 54.672 66.3173 53.5145 67.5502 50.8225L83.7519 14.67C83.0731 14.318 81.6129 13.9148 80.381 13.8897C78.2933 13.8645 75.5007 14.2919 73.7137 18.5437L68.4553 30.922L58.1656 14.1662C57.512 13.9651 55.8758 13.6634 54.6942 13.6634C51.0709 13.6634 49.0335 14.9969 46.9207 17.2867L36.9076 28.2309L44.9587 40.8858C46.4681 43.2007 48.4301 44.3824 51.6008 44.3824" fill="white"/>
<path d="M8.00078 31.6018L14.2649 32.8096C16.5547 33.237 17.7363 33.7659 17.7363 34.9988C17.7363 35.9552 16.8303 36.9608 13.8868 36.9608C11.1947 36.9608 7.59755 36.5586 5.33289 36.5586C3.06822 36.5586 0.779385 37.5652 0.779385 41.8924C0.779385 42.4204 0.87995 43.1002 1.00566 43.6281C4.27598 44.0053 11.2199 44.6096 16.0006 44.1058C22.5925 43.4019 25.8377 39.7534 25.8377 34.7967C25.8377 30.5198 23.1959 27.0232 17.0575 25.8908L11.0951 24.7837C9.18339 24.4317 7.97564 24.0033 7.97564 22.9222C7.97564 21.8411 9.23368 21.0608 12.2777 21.0608C15.3218 21.0608 17.8881 21.3876 19.5987 21.3876C21.8131 21.3876 24.0768 20.4564 24.0768 16.1292C24.0768 15.5509 24.0265 15.022 23.9008 14.4438C20.6305 14.0415 14.6932 13.4371 9.78679 13.9661C3.29546 14.6449 0 18.5196 0 23.1736C0 26.998 2.79263 30.5952 8.00078 31.6018Z" fill="white"/>
<path d="M36.5557 40.1054V3.55074C35.9272 3.42504 35.2725 3.34961 34.6188 3.34961C29.3604 3.34961 28.4553 6.14225 28.4553 8.83431V44.1822C29.0336 44.2576 29.6379 44.3079 30.3168 44.3079C35.4998 44.3079 36.5557 42.7733 36.5557 40.1064" fill="white"/>
</svg>
