<svg width="1063" height="164" viewBox="0 0 1063 164" fill="none" xmlns="http://www.w3.org/2000/svg">
<path d="M0 162C-0.552285 162 -1 162.448 -1 163C-1 163.552 -0.552285 164 0 164V162ZM4.11937 163.971C4.6716 163.963 5.11285 163.509 5.10493 162.956C5.097 162.404 4.64291 161.963 4.09068 161.971L4.11937 163.971ZM12.0822 161.74C11.5305 161.764 11.1027 162.231 11.1268 162.783C11.1509 163.335 11.6178 163.762 12.1695 163.738L12.0822 161.74ZM20.2039 163.263C20.7547 163.222 21.1677 162.742 21.1265 162.191C21.0853 161.641 20.6054 161.228 20.0547 161.269L20.2039 163.263ZM28.0012 160.544C27.4521 160.603 27.055 161.096 27.1142 161.646C27.1734 162.195 27.6666 162.592 28.2157 162.532L28.0012 160.544ZM36.2257 161.529C36.7724 161.451 37.1522 160.944 37.074 160.397C36.9958 159.851 36.4892 159.471 35.9425 159.549L36.2257 161.529ZM43.7819 158.285C43.2383 158.382 42.877 158.902 42.9748 159.446C43.0726 159.989 43.5925 160.351 44.1361 160.253L43.7819 158.285ZM52.0865 158.667C52.6259 158.549 52.9673 158.016 52.8489 157.476C52.7306 156.937 52.1973 156.595 51.6579 156.714L52.0865 158.667ZM59.3629 154.867C58.8284 155.006 58.5079 155.552 58.647 156.087C58.7862 156.621 59.3323 156.942 59.8667 156.802L59.3629 154.867ZM67.6698 154.603C68.1982 154.442 68.4965 153.884 68.3359 153.355C68.1754 152.827 67.6168 152.529 67.0884 152.689L67.6698 154.603ZM74.6677 150.217C74.1463 150.399 73.871 150.969 74.053 151.491C74.2349 152.012 74.8051 152.288 75.3266 152.106L74.6677 150.217ZM82.8569 149.304C83.3705 149.101 83.6221 148.52 83.419 148.006C83.2159 147.493 82.6349 147.241 82.1213 147.444L82.8569 149.304ZM89.509 144.345C89.0042 144.569 88.7766 145.16 89.0006 145.665C89.2246 146.17 89.8155 146.397 90.3203 146.173L89.509 144.345ZM97.6097 142.761C98.1051 142.517 98.3088 141.917 98.0647 141.422C97.8206 140.926 97.2211 140.723 96.7257 140.967L97.6097 142.761ZM103.805 137.303C103.32 137.567 103.14 138.174 103.403 138.659C103.666 139.145 104.273 139.325 104.759 139.062L103.805 137.303ZM111.784 135.078C112.259 134.797 112.416 134.184 112.135 133.709C111.854 133.233 111.24 133.076 110.765 133.357L111.784 135.078ZM117.56 129.171C117.095 129.469 116.959 130.087 117.257 130.552C117.555 131.018 118.174 131.153 118.639 130.855L117.56 129.171ZM125.34 126.406C125.795 126.093 125.911 125.47 125.598 125.015C125.285 124.56 124.662 124.445 124.207 124.758L125.34 126.406ZM130.734 120.124C130.288 120.451 130.191 121.076 130.517 121.522C130.844 121.967 131.469 122.064 131.915 121.738L130.734 120.124ZM138.344 116.896C138.781 116.558 138.861 115.93 138.523 115.493C138.185 115.056 137.557 114.976 137.12 115.314L138.344 116.896ZM143.385 110.347C142.956 110.695 142.891 111.325 143.239 111.754C143.587 112.183 144.216 112.248 144.645 111.9L143.385 110.347ZM150.842 106.77C151.264 106.413 151.318 105.782 150.961 105.36C150.605 104.938 149.974 104.885 149.552 105.241L150.842 106.77ZM155.63 100.026C155.214 100.389 155.17 101.021 155.533 101.437C155.896 101.854 156.528 101.897 156.944 101.534L155.63 100.026ZM162.969 96.2197C163.381 95.852 163.417 95.2199 163.05 94.8078C162.682 94.3956 162.05 94.3596 161.638 94.7272L162.969 96.2197ZM167.597 89.3659C167.187 89.7368 167.156 90.3692 167.527 90.7784C167.898 91.1876 168.53 91.2187 168.94 90.8478L167.597 89.3659ZM174.876 85.4428C175.284 85.0703 175.312 84.4378 174.94 84.0301C174.567 83.6223 173.935 83.5937 173.527 83.9662L174.876 85.4428ZM179.449 78.5527C179.041 78.9252 179.013 79.5577 179.385 79.9655C179.758 80.3732 180.39 80.4018 180.798 80.0293L179.449 78.5527ZM186.728 74.6297C187.138 74.2588 187.169 73.6264 186.798 73.2172C186.427 72.8079 185.794 72.7769 185.385 73.1477L186.728 74.6297ZM191.356 67.776C190.944 68.1436 190.908 68.7757 191.275 69.1879C191.643 69.6 192.275 69.6361 192.687 69.2685L191.356 67.776ZM198.695 63.9695C199.111 63.6067 199.155 62.9751 198.792 62.5586C198.429 62.1422 197.797 62.0986 197.381 62.4614L198.695 63.9695ZM203.483 57.2264C203.061 57.5825 203.007 58.2135 203.364 58.6355C203.72 59.0576 204.351 59.111 204.773 58.7548L203.483 57.2264ZM210.94 53.649C211.369 53.301 211.435 52.6713 211.087 52.2424C210.739 51.8135 210.109 51.7478 209.68 52.0957L210.94 53.649ZM215.982 47.1003C215.545 47.4383 215.465 48.0663 215.803 48.5032C216.141 48.94 216.769 49.0201 217.205 48.6822L215.982 47.1003ZM223.592 43.8722C224.038 43.546 224.134 42.9202 223.808 42.4746C223.482 42.029 222.856 41.9322 222.411 42.2585L223.592 43.8722ZM228.986 37.591C228.531 37.9038 228.415 38.5264 228.728 38.9815C229.041 39.4366 229.663 39.552 230.119 39.2392L228.986 37.591ZM236.766 34.8259C237.231 34.5281 237.367 33.9097 237.069 33.4446C236.771 32.9794 236.153 32.8438 235.687 33.1417L236.766 34.8259ZM242.542 28.9187C242.067 29.2 241.91 29.8133 242.191 30.2886C242.472 30.7639 243.086 30.9212 243.561 30.64L242.542 28.9187ZM250.521 26.6942C251.006 26.4309 251.187 25.8239 250.923 25.3384C250.66 24.8529 250.053 24.6728 249.568 24.936L250.521 26.6942ZM256.717 21.2371C256.221 21.4812 256.018 22.0807 256.262 22.5761C256.506 23.0715 257.105 23.2752 257.601 23.0311L256.717 21.2371ZM264.818 19.6528C265.322 19.4288 265.55 18.838 265.326 18.3332C265.102 17.8284 264.511 17.6007 264.006 17.8247L264.818 19.6528ZM271.47 14.6943C270.956 14.8974 270.705 15.4783 270.908 15.9919C271.111 16.5055 271.692 16.7572 272.205 16.5541L271.47 14.6943ZM279.659 13.7815C280.181 13.5996 280.456 13.0294 280.274 12.5079C280.092 11.9864 279.522 11.7112 279 11.8931L279.659 13.7815ZM286.657 9.39597C286.129 9.55651 285.831 10.115 285.991 10.6435C286.152 11.1719 286.71 11.4702 287.239 11.3096L286.657 9.39597ZM294.964 9.13216C295.499 8.99303 295.819 8.44697 295.68 7.9125C295.541 7.37802 294.995 7.05753 294.46 7.19666L294.964 9.13216ZM302.241 5.33226C301.701 5.4506 301.36 5.98384 301.478 6.5233C301.597 7.06276 302.13 7.40415 302.669 7.28582L302.241 5.33226ZM310.545 5.71501C311.089 5.61721 311.45 5.09728 311.352 4.55373C311.255 4.01017 310.735 3.64882 310.191 3.74662L310.545 5.71501ZM318.102 2.47074C317.555 2.54893 317.175 3.05553 317.253 3.60225C317.331 4.14897 317.838 4.52879 318.385 4.45059L318.102 2.47074ZM326.326 3.4558C326.875 3.39656 327.272 2.90341 327.213 2.35431C327.154 1.80521 326.661 1.4081 326.112 1.46734L326.326 3.4558ZM334.123 0.736721C333.573 0.777941 333.16 1.25782 333.201 1.80857C333.242 2.35931 333.722 2.77236 334.273 2.73114L334.123 0.736721ZM342.245 2.2599C342.797 2.23579 343.225 1.76896 343.2 1.2172C343.176 0.665439 342.71 0.237695 342.158 0.261805L342.245 2.2599ZM350.208 0.0293891C349.656 0.0373101 349.215 0.4914 349.222 1.04363C349.23 1.59586 349.684 2.0371 350.237 2.02918L350.208 0.0293891ZM358.418 2.02919C358.97 2.03711 359.424 1.59586 359.432 1.04363C359.44 0.491407 358.999 0.0373158 358.447 0.0293942L358.418 2.02919ZM366.497 0.261825C365.945 0.237715 365.478 0.665457 365.454 1.21722C365.43 1.76897 365.858 2.23581 366.41 2.25992L366.497 0.261825ZM374.382 2.73119C374.933 2.77241 375.413 2.35936 375.454 1.80861C375.495 1.25787 375.082 0.777987 374.531 0.736766L374.382 2.73119ZM382.543 1.46741C381.994 1.40817 381.501 1.80528 381.442 2.35438C381.383 2.90348 381.78 3.39663 382.329 3.45587L382.543 1.46741ZM390.27 4.45071C390.817 4.5289 391.324 4.14908 391.402 3.60236C391.48 3.05564 391.1 2.54905 390.553 2.47085L390.27 4.45071ZM398.464 3.74676C397.921 3.64896 397.401 4.01032 397.303 4.55387C397.205 5.09743 397.566 5.61735 398.11 5.71515L398.464 3.74676ZM405.986 7.28601C406.526 7.40435 407.059 7.06296 407.177 6.5235C407.295 5.98404 406.954 5.45079 406.415 5.33246L405.986 7.28601ZM414.195 7.1969C413.661 7.05777 413.114 7.37827 412.975 7.91274C412.836 8.44721 413.157 8.99327 413.691 9.1324L414.195 7.1969ZM421.417 11.3099C421.945 11.4704 422.504 11.1722 422.665 10.6437C422.825 10.1153 422.527 9.55678 421.998 9.39624L421.417 11.3099ZM429.655 11.8934C429.134 11.7115 428.564 11.9868 428.382 12.5082C428.2 13.0297 428.475 13.5999 428.997 13.7818L429.655 11.8934ZM436.45 16.5544C436.964 16.7575 437.545 16.5058 437.748 15.9923C437.951 15.4787 437.7 14.8977 437.186 14.6946L436.45 16.5544ZM444.65 17.8251C444.145 17.6011 443.554 17.8287 443.33 18.3335C443.106 18.8384 443.334 19.4292 443.838 19.6532L444.65 17.8251ZM451.055 23.0315C451.551 23.2756 452.15 23.0719 452.394 22.5765C452.638 22.0811 452.435 21.4816 451.939 21.2375L451.055 23.0315ZM459.089 24.9364C458.603 24.6731 457.996 24.8533 457.733 25.3388C457.47 25.8243 457.65 26.4313 458.135 26.6946L459.089 24.9364ZM465.096 30.6404C465.571 30.9216 466.184 30.7643 466.465 30.289C466.747 29.8137 466.589 29.2004 466.114 28.9191L465.096 30.6404ZM472.969 33.142C472.504 32.8442 471.886 32.9798 471.588 33.4449C471.29 33.91 471.426 34.5285 471.891 34.8263L472.969 33.142ZM478.538 39.2395C478.993 39.5523 479.616 39.437 479.929 38.9818C480.242 38.5267 480.126 37.9041 479.671 37.5913L478.538 39.2395ZM486.246 42.2588C485.801 41.9325 485.175 42.0293 484.849 42.4749C484.523 42.9206 484.619 43.5463 485.065 43.8725L486.246 42.2588ZM491.452 48.6825C491.889 49.0204 492.517 48.9403 492.855 48.5034C493.193 48.0666 493.112 47.4386 492.676 47.1006L491.452 48.6825ZM498.977 52.096C498.548 51.748 497.919 51.8137 497.571 52.2426C497.223 52.6716 497.289 53.3013 497.718 53.6492L498.977 52.096ZM503.885 58.7551C504.307 59.1112 504.938 59.0578 505.294 58.6357C505.65 58.2136 505.597 57.5827 505.175 57.2266L503.885 58.7551ZM511.277 62.4615C510.86 62.0988 510.229 62.1423 509.866 62.5588C509.503 62.9753 509.547 63.6069 509.963 63.9697L511.277 62.4615ZM515.971 69.2686C516.383 69.6362 517.015 69.6001 517.383 69.188C517.751 68.7758 517.715 68.1437 517.302 67.7761L515.971 69.2686ZM523.273 73.1478C522.864 72.7769 522.232 72.808 521.861 73.2173C521.49 73.6265 521.521 74.2589 521.93 74.6298L523.273 73.1478ZM527.861 80.0294C528.269 80.4019 528.901 80.3733 529.274 79.9655C529.646 79.5577 529.617 78.9252 529.21 78.5527L527.861 80.0294ZM535.132 83.9661C534.724 83.5937 534.092 83.6223 533.719 84.03C533.347 84.4378 533.375 85.0703 533.783 85.4428L535.132 83.9661ZM539.72 90.8478C540.129 91.2186 540.761 91.1875 541.132 90.7783C541.503 90.3691 541.472 89.7367 541.063 89.3658L539.72 90.8478ZM547.022 94.727C546.609 94.3594 545.977 94.3955 545.61 94.8076C545.242 95.2198 545.278 95.8519 545.69 96.2195L547.022 94.727ZM551.716 101.534C552.132 101.897 552.764 101.853 553.127 101.437C553.489 101.02 553.446 100.389 553.029 100.026L551.716 101.534ZM559.108 105.241C558.686 104.885 558.055 104.938 557.698 105.36C557.342 105.782 557.396 106.413 557.818 106.769L559.108 105.241ZM564.015 111.9C564.444 112.248 565.074 112.182 565.421 111.753C565.769 111.324 565.704 110.695 565.275 110.347L564.015 111.9ZM571.54 115.314C571.104 114.976 570.475 115.056 570.138 115.493C569.8 115.93 569.88 116.558 570.317 116.896L571.54 115.314ZM576.746 121.738C577.191 122.064 577.817 121.967 578.143 121.522C578.47 121.076 578.373 120.45 577.927 120.124L576.746 121.738ZM584.454 124.757C583.999 124.444 583.376 124.56 583.063 125.015C582.75 125.47 582.866 126.093 583.321 126.405L584.454 124.757ZM590.022 130.855C590.488 131.153 591.106 131.017 591.404 130.552C591.702 130.087 591.566 129.468 591.101 129.171L590.022 130.855ZM597.896 133.357C597.421 133.076 596.807 133.233 596.526 133.708C596.245 134.184 596.402 134.797 596.878 135.078L597.896 133.357ZM603.903 139.061C604.388 139.324 604.995 139.144 605.258 138.659C605.522 138.173 605.342 137.566 604.856 137.303L603.903 139.061ZM611.936 140.966C611.441 140.722 610.841 140.926 610.597 141.421C610.353 141.917 610.557 142.516 611.052 142.76L611.936 140.966ZM618.342 146.173C618.846 146.397 619.437 146.169 619.661 145.665C619.885 145.16 619.658 144.569 619.153 144.345L618.342 146.173ZM626.541 147.444C626.027 147.241 625.446 147.493 625.243 148.006C625.04 148.52 625.292 149.101 625.805 149.304L626.541 147.444ZM633.336 152.105C633.857 152.287 634.427 152.012 634.609 151.491C634.791 150.969 634.516 150.399 633.994 150.217L633.336 152.105ZM641.574 152.689C641.045 152.529 640.487 152.827 640.326 153.355C640.166 153.884 640.464 154.442 640.992 154.603L641.574 152.689ZM648.796 156.802C649.33 156.941 649.876 156.621 650.015 156.087C650.155 155.552 649.834 155.006 649.3 154.867L648.796 156.802ZM657.005 156.713C656.465 156.595 655.932 156.936 655.814 157.476C655.695 158.015 656.037 158.549 656.576 158.667L657.005 156.713ZM664.527 160.253C665.07 160.351 665.59 159.989 665.688 159.446C665.786 158.902 665.424 158.382 664.881 158.284L664.527 160.253ZM672.721 159.549C672.174 159.471 671.667 159.851 671.589 160.397C671.511 160.944 671.891 161.451 672.437 161.529L672.721 159.549ZM680.447 162.532C680.997 162.592 681.49 162.195 681.549 161.645C681.608 161.096 681.211 160.603 680.662 160.544L680.447 162.532ZM688.609 161.269C688.058 161.228 687.578 161.641 687.537 162.191C687.496 162.742 687.909 163.222 688.459 163.263L688.609 161.269ZM696.494 163.738C697.046 163.762 697.513 163.335 697.537 162.783C697.561 162.231 697.133 161.764 696.581 161.74L696.494 163.738ZM704.573 161.971C704.021 161.963 703.567 162.404 703.559 162.956C703.551 163.509 703.992 163.963 704.544 163.971L704.573 161.971ZM712.783 163.971C713.335 163.963 713.776 163.509 713.769 162.956C713.761 162.404 713.307 161.963 712.754 161.971L712.783 163.971ZM720.746 161.74C720.194 161.764 719.766 162.231 719.791 162.783C719.815 163.335 720.282 163.762 720.833 163.738L720.746 161.74ZM728.868 163.263C729.419 163.222 729.832 162.742 729.79 162.191C729.749 161.641 729.269 161.228 728.719 161.269L728.868 163.263ZM736.665 160.544C736.116 160.603 735.719 161.097 735.778 161.646C735.838 162.195 736.331 162.592 736.88 162.533L736.665 160.544ZM744.89 161.529C745.437 161.451 745.816 160.944 745.738 160.398C745.66 159.851 745.153 159.471 744.607 159.549L744.89 161.529ZM752.446 158.285C751.903 158.383 751.541 158.903 751.639 159.446C751.737 159.99 752.257 160.351 752.801 160.253L752.446 158.285ZM760.751 158.668C761.291 158.549 761.632 158.016 761.514 157.477C761.395 156.937 760.862 156.596 760.323 156.714L760.751 158.668ZM768.028 154.868C767.493 155.007 767.173 155.553 767.312 156.087C767.451 156.622 767.997 156.942 768.531 156.803L768.028 154.868ZM776.335 154.604C776.863 154.443 777.162 153.885 777.001 153.356C776.84 152.828 776.282 152.53 775.754 152.69L776.335 154.604ZM783.333 150.218C782.812 150.4 782.536 150.97 782.718 151.492C782.9 152.013 783.47 152.289 783.992 152.107L783.333 150.218ZM791.522 149.305C792.036 149.102 792.288 148.521 792.085 148.008C791.882 147.494 791.301 147.242 790.787 147.446L791.522 149.305ZM798.175 144.347C797.67 144.571 797.442 145.162 797.666 145.666C797.89 146.171 798.481 146.399 798.986 146.175L798.175 144.347ZM806.276 142.763C806.771 142.518 806.975 141.919 806.731 141.424C806.487 140.928 805.887 140.724 805.392 140.968L806.276 142.763ZM812.472 137.305C811.986 137.569 811.806 138.176 812.069 138.661C812.333 139.147 812.94 139.327 813.425 139.064L812.472 137.305ZM820.451 135.081C820.926 134.8 821.083 134.186 820.802 133.711C820.521 133.236 819.907 133.078 819.432 133.36L820.451 135.081ZM826.227 129.174C825.762 129.471 825.626 130.09 825.924 130.555C826.222 131.02 826.841 131.156 827.306 130.858L826.227 129.174ZM834.008 126.409C834.463 126.096 834.578 125.473 834.265 125.018C833.952 124.563 833.33 124.448 832.875 124.76L834.008 126.409ZM839.401 120.127C838.956 120.454 838.859 121.079 839.185 121.525C839.512 121.971 840.137 122.067 840.583 121.741L839.401 120.127ZM847.012 116.899C847.449 116.561 847.529 115.933 847.191 115.497C846.853 115.06 846.225 114.98 845.788 115.318L847.012 116.899ZM852.054 110.351C851.625 110.699 851.559 111.328 851.907 111.757C852.255 112.186 852.885 112.252 853.314 111.904L852.054 110.351ZM859.511 106.773C859.933 106.417 859.987 105.786 859.631 105.364C859.274 104.942 858.643 104.889 858.221 105.245L859.511 106.773ZM864.3 100.03C863.883 100.393 863.84 101.025 864.203 101.441C864.565 101.858 865.197 101.901 865.613 101.538L864.3 100.03ZM871.639 96.2239C872.051 95.8563 872.087 95.2242 871.72 94.812C871.352 94.3999 870.72 94.3638 870.308 94.7314L871.639 96.2239ZM876.267 89.3702C875.857 89.7411 875.826 90.3735 876.197 90.7827C876.568 91.192 877.2 91.2231 877.61 90.8522L876.267 89.3702ZM883.546 85.4473C883.954 85.0748 883.983 84.4423 883.61 84.0345C883.238 83.6267 882.605 83.5981 882.197 83.9706L883.546 85.4473ZM888.12 78.5572C887.712 78.9297 887.683 79.5622 888.056 79.97C888.428 80.3777 889.061 80.4063 889.468 80.0338L888.12 78.5572ZM895.399 74.6342C895.808 74.2633 895.839 73.6309 895.469 73.2217C895.098 72.8125 894.465 72.7814 894.056 73.1522L895.399 74.6342ZM900.027 67.7804C899.615 68.1481 899.578 68.7802 899.946 69.1924C900.314 69.6045 900.946 69.6406 901.358 69.273L900.027 67.7804ZM907.366 63.9739C907.782 63.6112 907.826 62.9795 907.463 62.5631C907.1 62.1466 906.469 62.1031 906.052 62.4658L907.366 63.9739ZM912.154 57.2307C911.732 57.5869 911.679 58.2178 912.035 58.6399C912.391 59.062 913.022 59.1154 913.444 58.7592L912.154 57.2307ZM919.611 53.6532C920.04 53.3053 920.106 52.6755 919.758 52.2466C919.41 51.8177 918.78 51.752 918.351 52.1L919.611 53.6532ZM924.653 47.1044C924.216 47.4424 924.136 48.0704 924.474 48.5073C924.812 48.9441 925.44 49.0242 925.877 48.6863L924.653 47.1044ZM932.264 43.8761C932.709 43.5498 932.806 42.9241 932.48 42.4785C932.154 42.0328 931.528 41.9361 931.082 42.2623L932.264 43.8761ZM937.657 37.5946C937.202 37.9074 937.087 38.53 937.4 38.9851C937.712 39.4403 938.335 39.5556 938.79 39.2428L937.657 37.5946ZM945.438 34.8293C945.903 34.5315 946.038 33.913 945.74 33.4479C945.443 32.9828 944.824 32.8472 944.359 33.1451L945.438 34.8293ZM951.214 28.9219C950.739 29.2031 950.581 29.8164 950.863 30.2917C951.144 30.767 951.757 30.9243 952.233 30.6431L951.214 28.9219ZM959.193 26.697C959.678 26.4337 959.858 25.8267 959.595 25.3412C959.332 24.8557 958.725 24.6755 958.239 24.9388L959.193 26.697ZM965.388 21.2396C964.893 21.4837 964.689 22.0833 964.933 22.5786C965.178 23.074 965.777 23.2777 966.272 23.0336L965.388 21.2396ZM973.489 19.655C973.994 19.431 974.222 18.8401 973.998 18.3353C973.774 17.8305 973.183 17.6029 972.678 17.8269L973.489 19.655ZM980.142 14.6961C979.628 14.8992 979.376 15.4802 979.579 15.9938C979.783 16.5074 980.364 16.7591 980.877 16.5559L980.142 14.6961ZM988.331 13.783C988.852 13.6011 989.128 13.0309 988.946 12.5094C988.764 11.988 988.193 11.7127 987.672 11.8947L988.331 13.783ZM995.329 9.39724C994.801 9.55779 994.502 10.1163 994.663 10.6448C994.823 11.1732 995.382 11.4714 995.91 11.3109L995.329 9.39724ZM1003.64 9.13317C1004.17 8.99403 1004.49 8.44796 1004.35 7.91349C1004.21 7.37902 1003.67 7.05854 1003.13 7.19768L1003.64 9.13317ZM1010.91 5.33303C1010.37 5.45137 1010.03 5.98463 1010.15 6.52408C1010.27 7.06354 1010.8 7.40492 1011.34 7.28657L1010.91 5.33303ZM1019.22 5.71553C1019.76 5.61772 1020.12 5.09779 1020.02 4.55423C1019.93 4.01068 1019.41 3.64934 1018.86 3.74715L1019.22 5.71553ZM1026.77 2.47111C1026.23 2.54931 1025.85 3.05591 1025.93 3.60263C1026 4.14935 1026.51 4.52916 1027.06 4.45096L1026.77 2.47111ZM1035 3.45601C1035.55 3.39677 1035.94 2.90361 1035.89 2.35451C1035.83 1.80541 1035.33 1.40831 1034.78 1.46755L1035 3.45601ZM1042.8 0.736836C1042.25 0.778061 1041.83 1.25795 1041.87 1.80869C1041.91 2.35944 1042.39 2.77248 1042.95 2.73126L1042.8 0.736836ZM1050.92 2.25994C1051.47 2.23583 1051.9 1.76899 1051.87 1.21723C1051.85 0.665474 1051.38 0.237733 1050.83 0.261847L1050.92 2.25994ZM1058.88 0.029395C1058.33 0.0373171 1057.89 0.491408 1057.9 1.04364C1057.9 1.59586 1058.36 2.03711 1058.91 2.02919L1058.88 0.029395ZM0 164C1.38377 164 2.75684 163.99 4.11937 163.971L4.09068 161.971C2.73778 161.99 1.37428 162 0 162V164ZM12.1695 163.738C14.8905 163.619 17.5681 163.46 20.2039 163.263L20.0547 161.269C17.4397 161.464 14.7827 161.622 12.0822 161.74L12.1695 163.738ZM28.2157 162.532C30.9308 162.24 33.6002 161.904 36.2257 161.529L35.9425 159.549C33.3401 159.921 30.6936 160.254 28.0012 160.544L28.2157 162.532ZM44.1361 160.253C46.8332 159.768 49.4827 159.238 52.0865 158.667L51.6579 156.714C49.0789 157.279 46.4543 157.804 43.7819 158.285L44.1361 160.253ZM59.8667 156.802C62.5153 156.113 65.1155 155.379 67.6698 154.603L67.0884 152.689C64.5598 153.458 61.9854 154.184 59.3629 154.867L59.8667 156.802ZM75.3266 152.106C77.8826 151.214 80.3918 150.279 82.8569 149.304L82.1213 147.444C79.6813 148.409 77.1977 149.334 74.6677 150.217L75.3266 152.106ZM90.3203 146.173C92.7938 145.076 95.2226 143.937 97.6097 142.761L96.7257 140.967C94.3621 142.132 91.9576 143.259 89.509 144.345L90.3203 146.173ZM104.759 139.062C107.14 137.77 109.481 136.441 111.784 135.078L110.765 133.357C108.483 134.708 106.164 136.024 103.805 137.303L104.759 139.062ZM118.639 130.855C120.907 129.403 123.139 127.919 125.34 126.406L124.207 124.758C122.023 126.259 119.809 127.731 117.56 129.171L118.639 130.855ZM131.915 121.738C134.086 120.149 136.227 118.533 138.344 116.896L137.12 115.314C135.017 116.941 132.889 118.546 130.734 120.124L131.915 121.738ZM144.645 111.9C146.731 110.208 148.796 108.497 150.842 106.77L149.552 105.241C147.515 106.961 145.46 108.664 143.385 110.347L144.645 111.9ZM156.944 101.534C158.965 99.7737 160.972 98.0009 162.969 96.2197L161.638 94.7272C159.646 96.5041 157.645 98.2716 155.63 100.026L156.944 101.534ZM168.94 90.8478C170.923 89.05 172.901 87.247 174.876 85.4428L173.527 83.9662C171.553 85.7696 169.578 87.5706 167.597 89.3659L168.94 90.8478ZM180.798 80.0293C182.772 78.226 184.747 76.425 186.728 74.6297L185.385 73.1477C183.401 74.9456 181.424 76.7486 179.449 78.5527L180.798 80.0293ZM192.687 69.2685C194.679 67.4916 196.68 65.7241 198.695 63.9695L197.381 62.4614C195.36 64.222 193.353 65.9948 191.356 67.776L192.687 69.2685ZM204.773 58.7548C206.81 57.0354 208.865 55.3323 210.94 53.649L209.68 52.0957C207.594 53.788 205.529 55.4994 203.483 57.2264L204.773 58.7548ZM217.205 48.6822C219.309 47.0548 221.436 45.4504 223.592 43.8722L222.411 42.2585C220.24 43.8478 218.098 45.4629 215.982 47.1003L217.205 48.6822ZM230.119 39.2392C232.302 37.7382 234.517 36.266 236.766 34.8259L235.687 33.1417C233.419 34.594 231.187 36.0782 228.986 37.591L230.119 39.2392ZM243.561 30.64C245.843 29.2896 248.162 27.9733 250.521 26.6942L249.568 24.936C247.186 26.2274 244.845 27.556 242.542 28.9187L243.561 30.64ZM257.601 23.0311C259.964 21.8664 262.369 20.7394 264.818 19.6528L264.006 17.8247C261.533 18.9224 259.104 20.0608 256.717 21.2371L257.601 23.0311ZM272.205 16.5541C274.645 15.5892 277.129 14.6641 279.659 13.7815L279 11.8931C276.444 12.7848 273.935 13.7194 271.47 14.6943L272.205 16.5541ZM287.239 11.3096C289.767 10.5414 292.342 9.81484 294.964 9.13216L294.46 7.19666C291.812 7.88611 289.212 8.61997 286.657 9.39597L287.239 11.3096ZM302.669 7.28582C305.248 6.7201 307.873 6.19585 310.545 5.71501L310.191 3.74662C307.494 4.23191 304.845 4.76111 302.241 5.33226L302.669 7.28582ZM318.385 4.45059C320.987 4.0784 323.634 3.74626 326.326 3.4558L326.112 1.46734C323.396 1.76025 320.727 2.09525 318.102 2.47074L318.385 4.45059ZM334.273 2.73114C336.888 2.53543 339.545 2.3779 342.245 2.2599L342.158 0.261805C339.437 0.3807 336.759 0.539447 334.123 0.736721L334.273 2.73114ZM350.237 2.02918C351.589 2.00978 352.953 2 354.327 2V0C352.943 0 351.57 0.00984675 350.208 0.0293891L350.237 2.02918ZM354.327 2C355.701 2 357.065 2.00978 358.418 2.02919L358.447 0.0293942C357.084 0.00984848 355.711 0 354.327 0V2ZM366.41 2.25992C369.11 2.37793 371.767 2.53547 374.382 2.73119L374.531 0.736766C371.896 0.539482 369.218 0.380727 366.497 0.261825L366.41 2.25992ZM382.329 3.45587C385.021 3.74634 387.668 4.0785 390.27 4.45071L390.553 2.47085C387.928 2.09535 385.258 1.76033 382.543 1.46741L382.329 3.45587ZM398.11 5.71515C400.782 6.19601 403.407 6.72028 405.986 7.28601L406.415 5.33246C403.811 4.76128 401.161 4.23208 398.464 3.74676L398.11 5.71515ZM413.691 9.1324C416.314 9.81509 418.888 10.5417 421.417 11.3099L421.998 9.39624C419.444 8.62023 416.844 7.88636 414.195 7.1969L413.691 9.1324ZM428.997 13.7818C431.527 14.6645 434.01 15.5895 436.45 16.5544L437.186 14.6946C434.721 13.7197 432.211 12.7851 429.655 11.8934L428.997 13.7818ZM443.838 19.6532C446.287 20.7398 448.692 21.8668 451.055 23.0315L451.939 21.2375C449.552 20.0612 447.123 18.9228 444.65 17.8251L443.838 19.6532ZM458.135 26.6946C460.495 27.9737 462.813 29.29 465.096 30.6404L466.114 28.9191C463.811 27.5564 461.47 26.2278 459.089 24.9364L458.135 26.6946ZM471.891 34.8263C474.14 36.2664 476.354 37.7386 478.538 39.2395L479.671 37.5913C477.47 36.0786 475.237 34.5944 472.969 33.142L471.891 34.8263ZM485.065 43.8725C487.221 45.4507 489.348 47.0551 491.452 48.6825L492.676 47.1006C490.559 45.4632 488.417 43.8481 486.246 42.2588L485.065 43.8725ZM497.718 53.6492C499.793 55.3326 501.847 57.0356 503.885 58.7551L505.175 57.2266C503.128 55.4996 501.064 53.7882 498.977 52.096L497.718 53.6492ZM509.963 63.9697C511.978 65.7243 513.979 67.4917 515.971 69.2686L517.302 67.7761C515.305 65.9949 513.298 64.2221 511.277 62.4615L509.963 63.9697ZM521.93 74.6298C523.911 76.4251 525.887 78.226 527.861 80.0294L529.21 78.5527C527.235 76.7486 525.257 74.9456 523.273 73.1478L521.93 74.6298ZM533.783 85.4428C535.758 87.2469 537.736 89.0499 539.72 90.8478L541.063 89.3658C539.082 87.5705 537.106 85.7695 535.132 83.9661L533.783 85.4428ZM545.69 96.2195C547.687 98.0008 549.694 99.7735 551.716 101.534L553.029 100.026C551.015 98.2714 549.014 96.5039 547.022 94.727L545.69 96.2195ZM557.818 106.769C559.864 108.496 561.929 110.208 564.015 111.9L565.275 110.347C563.2 108.663 561.145 106.96 559.108 105.241L557.818 106.769ZM570.317 116.896C572.433 118.533 574.575 120.148 576.746 121.738L577.927 120.124C575.771 118.546 573.644 116.941 571.54 115.314L570.317 116.896ZM583.321 126.405C585.522 127.918 587.754 129.402 590.022 130.855L591.101 129.171C588.852 127.73 586.637 126.258 584.454 124.757L583.321 126.405ZM596.878 135.078C599.18 136.441 601.521 137.77 603.903 139.061L604.856 137.303C602.497 136.024 600.178 134.707 597.896 133.357L596.878 135.078ZM611.052 142.76C613.439 143.937 615.868 145.075 618.342 146.173L619.153 144.345C616.704 143.258 614.3 142.131 611.936 140.966L611.052 142.76ZM625.805 149.304C628.27 150.279 630.779 151.214 633.336 152.105L633.994 150.217C631.464 149.334 628.981 148.409 626.541 147.444L625.805 149.304ZM640.992 154.603C643.547 155.379 646.147 156.113 648.796 156.802L649.3 154.867C646.677 154.184 644.103 153.457 641.574 152.689L640.992 154.603ZM656.576 158.667C659.18 159.238 661.83 159.767 664.527 160.253L664.881 158.284C662.208 157.804 659.584 157.279 657.005 156.713L656.576 158.667ZM672.437 161.529C675.063 161.904 677.732 162.239 680.447 162.532L680.662 160.544C677.97 160.253 675.323 159.921 672.721 159.549L672.437 161.529ZM688.459 163.263C691.095 163.46 693.773 163.619 696.494 163.738L696.581 161.74C693.881 161.622 691.224 161.464 688.609 161.269L688.459 163.263ZM704.544 163.971C705.907 163.99 707.28 164 708.664 164V162C707.289 162 705.926 161.99 704.573 161.971L704.544 163.971ZM708.664 164C710.047 164 711.42 163.99 712.783 163.971L712.754 161.971C711.401 161.99 710.038 162 708.664 162V164ZM720.833 163.738C723.554 163.619 726.232 163.461 728.868 163.263L728.719 161.269C726.104 161.465 723.447 161.622 720.746 161.74L720.833 163.738ZM736.88 162.533C739.595 162.24 742.264 161.905 744.89 161.529L744.607 159.549C742.004 159.922 739.358 160.254 736.665 160.544L736.88 162.533ZM752.801 160.253C755.498 159.768 758.147 159.239 760.751 158.668L760.323 156.714C757.744 157.28 755.119 157.804 752.446 158.285L752.801 160.253ZM768.531 156.803C771.18 156.114 773.78 155.38 776.335 154.604L775.754 152.69C773.225 153.458 770.65 154.185 768.028 154.868L768.531 156.803ZM783.992 152.107C786.548 151.215 789.057 150.28 791.522 149.305L790.787 147.446C788.347 148.41 785.863 149.336 783.333 150.218L783.992 152.107ZM798.986 146.175C801.46 145.077 803.889 143.939 806.276 142.763L805.392 140.968C803.028 142.133 800.624 143.26 798.175 144.347L798.986 146.175ZM813.425 139.064C815.807 137.772 818.148 136.444 820.451 135.081L819.432 133.36C817.15 134.71 814.831 136.026 812.472 137.305L813.425 139.064ZM827.306 130.858C829.574 129.406 831.807 127.921 834.008 126.409L832.875 124.76C830.691 126.261 828.476 127.734 826.227 129.174L827.306 130.858ZM840.583 121.741C842.754 120.152 844.896 118.537 847.012 116.899L845.788 115.318C843.685 116.945 841.557 118.549 839.401 120.127L840.583 121.741ZM853.314 111.904C855.4 110.212 857.465 108.5 859.511 106.773L858.221 105.245C856.184 106.964 854.129 108.667 852.054 110.351L853.314 111.904ZM865.613 101.538C867.635 99.7779 869.642 98.0051 871.639 96.2239L870.308 94.7314C868.316 96.5083 866.314 98.2757 864.3 100.03L865.613 101.538ZM877.61 90.8522C879.594 89.0544 881.571 87.2514 883.546 85.4473L882.197 83.9706C880.223 85.774 878.248 87.5749 876.267 89.3702L877.61 90.8522ZM889.468 80.0338C891.443 78.2305 893.418 76.4295 895.399 74.6342L894.056 73.1522C892.072 74.9501 890.095 76.7531 888.12 78.5572L889.468 80.0338ZM901.358 69.273C903.35 67.4961 905.351 65.7286 907.366 63.9739L906.052 62.4658C904.031 64.2265 902.024 65.9992 900.027 67.7804L901.358 69.273ZM913.444 58.7592C915.482 57.0397 917.536 55.3366 919.611 53.6532L918.351 52.1C916.265 53.7923 914.201 55.5037 912.154 57.2307L913.444 58.7592ZM925.877 48.6863C927.98 47.0588 930.108 45.4543 932.264 43.8761L931.082 42.2623C928.911 43.8517 926.77 45.4669 924.653 47.1044L925.877 48.6863ZM938.79 39.2428C940.974 37.7417 943.188 36.2695 945.438 34.8293L944.359 33.1451C942.091 34.5975 939.858 36.0818 937.657 37.5946L938.79 39.2428ZM952.233 30.6431C954.515 29.2926 956.833 27.9762 959.193 26.697L958.239 24.9388C955.857 26.2303 953.517 27.5591 951.214 28.9219L952.233 30.6431ZM966.272 23.0336C968.636 21.8688 971.041 20.7417 973.489 19.655L972.678 17.8269C970.204 18.9247 967.776 20.0632 965.388 21.2396L966.272 23.0336ZM980.877 16.5559C983.317 15.5909 985.801 14.6658 988.331 13.783L987.672 11.8947C985.116 12.7865 982.607 13.7211 980.142 14.6961L980.877 16.5559ZM995.91 11.3109C998.439 10.5426 1001.01 9.81592 1003.64 9.13317L1003.13 7.19768C1000.48 7.88721 997.883 8.62115 995.329 9.39724L995.91 11.3109ZM1011.34 7.28657C1013.92 6.72077 1016.54 6.19645 1019.22 5.71553L1018.86 3.74715C1016.17 4.23252 1013.52 4.76179 1010.91 5.33303L1011.34 7.28657ZM1027.06 4.45096C1029.66 4.0787 1032.31 3.74652 1035 3.45601L1034.78 1.46755C1032.07 1.76051 1029.4 2.09556 1026.77 2.47111L1027.06 4.45096ZM1042.95 2.73126C1045.56 2.53552 1048.22 2.37796 1050.92 2.25994L1050.83 0.261847C1048.11 0.38076 1045.43 0.539531 1042.8 0.736836L1042.95 2.73126ZM1058.91 2.02919C1060.26 2.00978 1061.63 2 1063 2V0C1061.62 0 1060.24 0.00984871 1058.88 0.029395L1058.91 2.02919Z" fill="#BEBDC1"/>
</svg>
